<svg width="178" height="46" viewBox="0 0 178 46" fill="none" xmlns="http://www.w3.org/2000/svg">
<path d="M57.4485 15.8686C57.4485 16.8473 57.0953 17.646 56.3913 18.2647C55.6064 18.9503 54.5261 19.2942 53.1549 19.2942C53.0049 19.2942 52.5224 19.2757 51.7053 19.2388C50.8881 19.2019 50.2856 19.1834 49.9001 19.1834H48.4597C48.4089 19.1834 48.3858 19.158 48.3858 19.1095V18.7817C48.3858 18.7194 48.4112 18.6894 48.4597 18.6894H49.7593C49.914 18.6894 49.9925 18.5809 49.9925 18.3616C49.9925 18.2877 49.9809 17.3482 49.9555 15.5454C49.9301 13.7425 49.9186 12.7523 49.9186 12.5699V8.79568C49.8632 7.63457 49.7408 7.05516 49.5539 7.05516H48.1319C48.0811 7.05516 48.058 7.02054 48.058 6.95129V6.6512C48.058 6.5958 48.088 6.5681 48.1527 6.5681H50.9504C51.0381 6.5681 51.3729 6.55886 51.9569 6.5404C52.5409 6.52193 52.8825 6.5127 52.9818 6.5127H53.889C54.1822 6.52424 54.5838 6.59811 55.0963 6.72737C55.5764 6.91435 55.9827 7.20521 56.3128 7.59763C56.6983 8.05931 56.8922 8.62486 56.8922 9.29199C56.8922 9.7906 56.8045 10.2176 56.6314 10.5731C56.5575 10.7232 56.389 10.9656 56.1258 11.3026C55.7819 11.7527 55.3063 12.1405 54.6946 12.4729C54.57 12.5422 54.563 12.5953 54.6762 12.6322C55.3687 12.8446 55.9919 13.2001 56.5483 13.6987C57.1461 14.2342 57.4485 14.9591 57.4485 15.8686ZM55.4564 10.0399C55.4564 9.22966 55.1725 8.53253 54.6046 7.94851C54.0367 7.36449 53.2796 7.07363 52.3308 7.07363C51.9061 7.07363 51.6314 7.0921 51.5068 7.12903C51.4121 7.15443 51.359 7.21675 51.3475 7.31601C51.3359 7.43374 51.329 9.04961 51.329 12.1613C51.329 12.279 51.3636 12.3391 51.4329 12.3391C51.4144 12.3391 51.5414 12.3367 51.8115 12.3298C52.0815 12.3229 52.3516 12.3206 52.6217 12.3206C52.7394 12.3206 52.9795 12.3367 53.3419 12.3668C53.7713 12.4106 53.9975 12.4314 54.016 12.4314C54.0667 12.4383 54.1429 12.4129 54.2491 12.3575C54.6115 12.1705 54.8978 11.8704 55.1101 11.4596C55.341 11.014 55.4564 10.5408 55.4564 10.0399ZM55.858 16.1133C55.858 15.2476 55.5718 14.5251 54.997 13.9526C54.1914 13.1493 53.1157 12.7453 51.7699 12.7453C51.6083 12.7453 51.4883 12.7638 51.4144 12.8007C51.3706 12.8123 51.3498 12.8746 51.3498 12.9877V17.0943C51.3798 18.0546 51.4837 18.5717 51.6591 18.6479C51.9961 18.7841 52.4947 18.8533 53.1549 18.8533C53.9721 18.8533 54.6046 18.6502 55.0547 18.2462C55.5903 17.7522 55.858 17.0412 55.858 16.1133Z" fill="white"/>
<path d="M70.7424 19.0857C70.7424 19.148 70.7239 19.1803 70.687 19.1803H66.3749C66.3126 19.1803 66.2803 19.1434 66.2803 19.0672V18.8156C66.2803 18.7279 66.3103 18.684 66.3749 18.684H67.6561C67.7553 18.684 67.7969 18.6286 67.7784 18.5155C67.723 18.317 67.506 17.666 67.1321 16.5649C66.7581 15.4638 66.5527 14.8729 66.5157 14.7921C66.465 14.6674 66.4003 14.6051 66.3195 14.6051H61.802C61.7466 14.6166 61.6981 14.6559 61.6612 14.7182C61.5735 14.8867 61.4235 15.2814 61.2111 15.9024C60.9987 16.5234 60.8671 16.9458 60.8187 17.1697C60.7194 17.6683 60.6686 17.9684 60.6686 18.0677C60.6686 18.4786 60.7194 18.6863 60.8187 18.6863H62.2406C62.3145 18.6863 62.3537 18.7302 62.3537 18.8179V19.0903C62.3537 19.1526 62.3214 19.1849 62.2591 19.1849H58.4803C58.4179 19.1849 58.3856 19.1549 58.3856 19.0903V18.781C58.3856 18.7186 58.411 18.6886 58.4595 18.6886H59.2651C59.4013 18.6886 59.5883 18.3955 59.8214 17.8091C60.0546 17.2228 60.7517 15.5308 61.9128 12.7284C62.6538 10.9625 63.5564 8.8249 64.6159 6.31108C64.6852 6.11717 64.7521 6.00868 64.8214 5.98329C64.9968 5.93481 65.2207 5.85633 65.4954 5.75014C65.5393 5.73167 65.5901 5.76399 65.6455 5.8494C65.7009 5.9325 65.6755 6.02945 65.5716 6.13564C65.3846 6.32954 65.29 6.51652 65.29 6.69658C65.2831 6.88356 65.3269 7.1167 65.4216 7.39832C65.7586 8.33322 66.3657 10.0853 67.2452 12.6522C68.1247 15.2191 68.7364 16.8788 69.078 17.6337C69.4081 18.3377 69.6459 18.6909 69.789 18.6909H70.6685C70.7193 18.6909 70.7424 18.7348 70.7424 18.8225V19.0857ZM66.1118 13.7533C65.8555 13.0123 65.5808 12.1974 65.2877 11.311C64.9945 10.4246 64.6921 9.50126 64.3805 8.54097C64.362 8.46018 64.3366 8.40939 64.3066 8.39093C64.2812 8.41632 64.2512 8.4648 64.212 8.54097C63.4317 10.45 62.8731 11.8027 62.5338 12.6014C62.1944 13.4001 62.0236 13.811 62.0236 13.8364C62.0236 13.8733 62.0513 13.8918 62.1067 13.8918H66.0633C66.1256 13.8941 66.1418 13.8479 66.1118 13.7533Z" fill="white"/>
<path d="M85.0083 10.2746C85.0083 11.2233 84.6828 12.0405 84.0364 12.7261C83.3555 13.444 82.3536 13.8018 81.024 13.8018C80.4077 13.8018 79.6851 13.6933 78.8633 13.474C78.8126 13.4625 78.7895 13.4809 78.7895 13.5294V16.5696C78.7895 17.9915 78.9164 18.7025 79.1727 18.7025H80.8555C80.9293 18.7025 80.9686 18.7394 80.9686 18.8156V19.0672C80.9686 19.1411 80.9501 19.1803 80.9132 19.1803H75.8717C75.8209 19.1803 75.7978 19.1549 75.7978 19.1065V18.8156C75.7978 18.7417 75.8278 18.7025 75.8925 18.7025H77.1828C77.2821 18.7025 77.3329 18.624 77.3329 18.4694V8.83417C77.3329 7.67306 77.2544 7.09365 77.0997 7.09365H75.8186C75.7309 7.09365 75.687 7.06826 75.687 7.01978V6.69199C75.687 6.62274 75.7239 6.58812 75.8001 6.58812H78.1385C78.2447 6.58812 78.6579 6.57888 79.3781 6.56042C80.0983 6.54195 80.4769 6.53271 80.5138 6.53271C81.1994 6.53271 81.7604 6.57888 82.1966 6.67353C82.9145 6.81665 83.5401 7.16521 84.078 7.72153C84.6966 8.36788 85.0083 9.21967 85.0083 10.2746ZM83.5401 10.4039C83.5401 9.57516 83.2308 8.85495 82.6145 8.24323C81.8919 7.51378 80.8786 7.14905 79.5743 7.14905C79.2119 7.14905 79.0065 7.15598 78.958 7.16752C78.9072 7.17906 78.8772 7.24139 78.8633 7.3545C78.8264 7.6846 78.8079 8.64488 78.8079 10.2354C78.8079 10.2908 78.8056 10.734 78.7987 11.5581C78.7918 12.3845 78.7895 12.8161 78.7895 12.8531C78.7895 12.9339 78.8333 12.9939 78.9211 13.0308C79.3204 13.1809 79.9183 13.2547 80.717 13.2547C81.6519 13.2547 82.3444 13.0308 82.7945 12.5807C83.2908 12.0913 83.5401 11.3642 83.5401 10.4039Z" fill="white"/>
<path d="M98.4522 19.0669C98.4522 19.1407 98.4268 19.18 98.3783 19.18H95.3359C95.2666 19.18 95.1905 19.1431 95.1027 19.0669C94.865 18.8614 94.4287 18.3374 93.7939 17.4949C93.4569 17.0401 93.1198 16.5854 92.7828 16.1283C92.4089 15.5674 91.8918 14.6948 91.2293 13.5083C91.1854 13.4021 91.1346 13.349 91.0792 13.349C90.7861 13.349 90.269 13.3121 89.5257 13.2359C89.4264 13.2059 89.3756 13.2359 89.3756 13.3306C89.3756 13.4483 89.378 13.843 89.3849 14.5148C89.3918 15.1865 89.3941 15.8905 89.3941 16.6338C89.3941 18.0004 89.5349 18.6837 89.8142 18.6837H91.4786C91.5409 18.6837 91.5732 18.7137 91.5732 18.776V19.0853C91.5732 19.1477 91.5478 19.18 91.4994 19.18H86.541C86.4856 19.18 86.4509 19.1708 86.4371 19.1523C86.4255 19.1338 86.4186 19.113 86.4186 19.0877V18.7968C86.4186 18.7414 86.4278 18.7068 86.4463 18.6975C86.4648 18.6883 86.4902 18.6837 86.5202 18.6837H87.7459C87.8452 18.6837 87.896 18.5867 87.896 18.3928V13.3975V9.52403C87.8844 7.8089 87.7736 6.95019 87.5682 6.95019H86.3794C86.317 6.95019 86.2847 6.92479 86.2847 6.87632V6.53006C86.2847 6.47928 86.3101 6.45619 86.3586 6.45619H89.1564C89.2441 6.45619 89.6019 6.44465 90.2274 6.41926C90.8553 6.39387 91.2062 6.38232 91.2801 6.38232C91.6863 6.38232 92.0811 6.41464 92.4689 6.47697C93.3299 6.61316 94.0224 6.93634 94.5464 7.43956C95.1581 8.01897 95.4628 8.75303 95.4628 9.63714C95.4628 10.6482 95.1628 11.4769 94.5649 12.1256C94.1956 12.5249 93.5954 12.8643 92.7597 13.1459C92.709 13.1713 92.6905 13.2082 92.7043 13.259C92.979 13.9769 93.6115 14.8956 94.6041 16.0198C95.1212 16.6061 95.4998 17.0263 95.7352 17.2825C96.1531 17.7188 96.5085 18.0466 96.8017 18.2659C97.2011 18.559 97.6997 18.7045 98.2975 18.7045C98.3968 18.7045 98.4476 18.7299 98.4476 18.7783V19.0669H98.4522ZM93.9139 10.1334C93.9139 9.30474 93.6392 8.62838 93.0898 8.10438C92.3234 7.38185 91.2131 7.01944 89.7588 7.01944C89.5465 7.01944 89.431 7.0633 89.4126 7.15102C89.4126 8.94001 89.401 10.0573 89.3756 10.5005V12.6334C89.3756 12.7027 89.4195 12.7465 89.5072 12.765C89.6503 12.7904 90.0474 12.8019 90.696 12.8019C90.9638 12.8019 91.2662 12.7765 91.5986 12.7281C91.9333 12.6773 92.0834 12.6542 92.0534 12.6542C93.2953 12.3264 93.9139 11.4862 93.9139 10.1334Z" fill="white"/>
<path d="M111.663 12.5465C111.663 14.5178 111.19 16.0575 110.241 17.1678C109.911 17.5603 109.636 17.8442 109.417 18.0196C108.962 18.382 108.369 18.696 107.639 18.9638C107.053 19.1831 106.291 19.2915 105.356 19.2915C103.865 19.2915 102.743 19.1023 101.988 18.7214C101.439 18.4467 100.977 18.0935 100.603 17.6641C100.142 17.1401 99.8117 16.563 99.6109 15.9329C99.3685 15.178 99.2461 14.1831 99.2461 12.9481C99.2461 12.1056 99.3616 11.3069 99.5924 10.552C99.8671 9.66098 100.276 8.90845 100.818 8.29673C101.361 7.68501 102.141 7.17947 103.157 6.78243C103.874 6.50081 104.673 6.3623 105.553 6.3623C106.887 6.3623 107.907 6.52158 108.611 6.84014C109.403 7.19563 110.024 7.6827 110.474 8.29904C111.266 9.37936 111.663 10.7944 111.663 12.5465ZM110.183 13.052C110.183 12.154 110.079 11.3692 109.874 10.6951C109.643 9.9149 109.276 9.23855 108.771 8.66607C108.309 8.14207 107.759 7.74503 107.125 7.47725C106.388 7.17255 105.652 7.01789 104.918 7.01789C103.964 7.01789 103.274 7.17024 102.85 7.47725C102.076 8.02665 101.545 8.63144 101.259 9.29164C100.871 10.1642 100.68 11.2307 100.68 12.4911C100.68 14.3493 101.026 15.8128 101.718 16.8793C102.136 17.5279 102.762 18.045 103.6 18.4328C104.255 18.7375 104.969 18.8922 105.742 18.8922C106.614 18.8922 107.42 18.6498 108.156 18.1628C108.729 17.7888 109.223 17.1471 109.634 16.2353C109.999 15.4042 110.183 14.3447 110.183 13.052Z" fill="white"/>
<path d="M125.723 13.68C125.723 13.7607 125.686 13.8023 125.61 13.8023H124.274C124.2 13.8023 124.161 13.8392 124.161 13.9154C124.161 13.8669 124.154 14.0631 124.137 14.5087C124.121 14.9542 124.114 15.3905 124.114 15.8129C124.114 16.5862 124.135 17.2995 124.179 17.9551C124.179 18.0428 124.144 18.0936 124.075 18.1051C123.863 18.1051 123.406 18.2667 122.699 18.5922C121.633 19.0723 120.502 19.3124 119.304 19.3124C117.956 19.3124 117.005 19.2062 116.451 18.9938C115.435 18.5945 114.636 17.9805 114.054 17.1518C113.406 16.2169 113.083 14.9311 113.083 13.2968C113.083 11.674 113.607 10.2197 114.655 8.927C115.403 8.01057 116.538 7.31575 118.06 6.84022C118.888 6.58399 119.962 6.45703 121.277 6.45703C122.644 6.45703 123.653 6.57245 124.308 6.80329C124.382 6.82868 124.421 6.87254 124.421 6.93487C124.421 6.96488 124.405 7.10569 124.375 7.35499C124.338 7.63661 124.315 7.7982 124.311 7.84206C124.248 8.47917 124.204 8.85313 124.179 8.96393C124.161 9.03319 124.126 9.06781 124.075 9.06781C123.987 9.06781 123.944 9.04011 123.944 8.9824C123.944 8.83236 123.925 8.68693 123.888 8.54381C123.819 8.30143 123.655 8.09137 123.392 7.91593C122.669 7.44271 121.568 7.20495 120.089 7.20495C119.278 7.20495 118.604 7.29959 118.069 7.48657C117.365 7.73587 116.702 8.19063 116.086 8.85313C115.093 9.92653 114.599 11.2908 114.599 12.9505C114.599 14.7787 115.13 16.2215 116.19 17.281C116.795 17.8928 117.48 18.3036 118.249 18.516C118.759 18.6545 119.447 18.7215 120.308 18.7215C121.074 18.7215 121.82 18.4791 122.545 17.992C122.6 17.9228 122.63 17.8674 122.63 17.8235V16.1684C122.63 15.5751 122.623 15.1619 122.612 14.9242C122.568 14.1763 122.503 13.8023 122.415 13.8023H120.405C120.331 13.8023 120.292 13.7423 120.292 13.6246V13.4353C120.292 13.3406 120.336 13.2945 120.423 13.2945H125.596C125.684 13.2945 125.728 13.336 125.728 13.4168V13.68H125.723Z" fill="white"/>
<path d="M139.269 19.0669C139.269 19.1407 139.244 19.18 139.195 19.18H136.155C136.086 19.18 136.01 19.1431 135.922 19.0669C135.684 18.8614 135.248 18.3374 134.613 17.4949C134.276 17.0401 133.939 16.5854 133.602 16.1283C133.228 15.5674 132.709 14.6948 132.048 13.5083C132.005 13.4021 131.956 13.349 131.898 13.349C131.605 13.349 131.088 13.3121 130.345 13.2359C130.246 13.2059 130.195 13.2359 130.195 13.3306C130.195 13.4483 130.197 13.843 130.204 14.5148C130.211 15.1865 130.213 15.8905 130.213 16.6338C130.213 18.0004 130.354 18.6837 130.633 18.6837H132.298C132.36 18.6837 132.392 18.7137 132.392 18.776V19.0853C132.392 19.1477 132.367 19.18 132.319 19.18H127.36C127.305 19.18 127.27 19.1708 127.256 19.1523C127.245 19.1338 127.238 19.113 127.238 19.0877V18.7968C127.238 18.7414 127.247 18.7068 127.265 18.6975C127.284 18.6883 127.309 18.6837 127.339 18.6837H128.565C128.664 18.6837 128.715 18.5867 128.715 18.3928V13.3975V9.52403C128.704 7.8089 128.593 6.95019 128.387 6.95019H127.199C127.136 6.95019 127.104 6.92479 127.104 6.87632V6.53006C127.104 6.47928 127.129 6.45619 127.178 6.45619H129.975C130.063 6.45619 130.421 6.44465 131.047 6.41926C131.674 6.39387 132.025 6.38232 132.099 6.38232C132.505 6.38232 132.9 6.41464 133.288 6.47697C134.149 6.61316 134.842 6.93634 135.366 7.43956C135.977 8.01897 136.282 8.75303 136.282 9.63714C136.282 10.6482 135.982 11.4769 135.384 12.1256C135.017 12.5249 134.415 12.8643 133.579 13.1459C133.528 13.1713 133.51 13.2082 133.523 13.259C133.798 13.9769 134.431 14.8956 135.423 16.0198C135.94 16.6061 136.319 17.0263 136.554 17.2825C136.972 17.7188 137.328 18.0466 137.621 18.2659C138.02 18.559 138.519 18.7045 139.117 18.7045C139.216 18.7045 139.267 18.7299 139.267 18.7783V19.0669H139.269ZM134.731 10.1334C134.731 9.30474 134.456 8.62838 133.907 8.10438C133.14 7.38185 132.03 7.01944 130.576 7.01944C130.363 7.01944 130.248 7.0633 130.229 7.15102C130.229 8.94001 130.218 10.0573 130.192 10.5005V12.6334C130.192 12.7027 130.236 12.7465 130.324 12.765C130.467 12.7904 130.864 12.8019 131.513 12.8019C131.781 12.8019 132.083 12.7765 132.415 12.7281C132.75 12.6773 132.9 12.6542 132.868 12.6542C134.112 12.3264 134.731 11.4862 134.731 10.1334Z" fill="white"/>
<path d="M151.806 19.0857C151.806 19.148 151.787 19.1803 151.75 19.1803H147.436C147.374 19.1803 147.341 19.1434 147.341 19.0672V18.8156C147.341 18.7279 147.371 18.684 147.436 18.684H148.717C148.816 18.684 148.858 18.6286 148.84 18.5155C148.784 18.317 148.569 17.666 148.193 16.5649C147.817 15.4638 147.614 14.8729 147.575 14.7921C147.524 14.6674 147.459 14.6051 147.378 14.6051H142.859C142.803 14.6166 142.755 14.6559 142.718 14.7182C142.63 14.8867 142.48 15.2814 142.268 15.9024C142.055 16.5234 141.924 16.9458 141.875 17.1697C141.776 17.6683 141.725 17.9684 141.725 18.0677C141.725 18.4786 141.776 18.6863 141.875 18.6863H143.297C143.371 18.6863 143.41 18.7302 143.41 18.8179V19.0903C143.41 19.1526 143.378 19.1849 143.316 19.1849H139.541C139.479 19.1849 139.447 19.1549 139.447 19.0903V18.781C139.447 18.7186 139.472 18.6886 139.521 18.6886H140.326C140.462 18.6886 140.649 18.3955 140.883 17.8091C141.116 17.2228 141.813 15.5308 142.974 12.7284C143.717 10.9625 144.618 8.8249 145.677 6.31108C145.746 6.11717 145.813 6.00868 145.882 5.98329C146.058 5.93481 146.282 5.85633 146.557 5.75014C146.6 5.73167 146.651 5.76399 146.707 5.8494C146.762 5.9325 146.737 6.02945 146.633 6.13564C146.446 6.32954 146.351 6.51652 146.351 6.69658C146.344 6.88356 146.388 7.1167 146.483 7.39832C146.82 8.33322 147.427 10.0853 148.306 12.6522C149.186 15.2191 149.798 16.8788 150.139 17.6337C150.469 18.3377 150.707 18.6909 150.85 18.6909H151.73C151.78 18.6909 151.803 18.7348 151.803 18.8225V19.0857H151.806ZM147.175 13.7533C146.919 13.0123 146.644 12.1974 146.351 11.311C146.058 10.4246 145.756 9.50126 145.444 8.54097C145.425 8.46018 145.4 8.40939 145.37 8.39093C145.345 8.41632 145.315 8.4648 145.278 8.54097C144.497 10.45 143.939 11.8027 143.597 12.6014C143.258 13.4001 143.087 13.811 143.087 13.8364C143.087 13.8733 143.115 13.8918 143.172 13.8918H147.129C147.189 13.8941 147.205 13.8479 147.175 13.7533Z" fill="white"/>
<path d="M168.609 19.086C168.609 19.1483 168.576 19.1806 168.514 19.1806H164.239C164.151 19.1806 164.107 19.1506 164.107 19.086V18.7766C164.107 18.7143 164.137 18.6843 164.2 18.6843H165.211C165.368 18.6843 165.444 18.6058 165.444 18.4512V13.6613C165.444 11.1982 165.418 9.55235 165.37 8.72133C165.358 8.54128 165.326 8.44894 165.275 8.44894C165.238 8.44894 165.192 8.50896 165.134 8.62669C165.003 8.89446 163.74 11.7615 161.346 17.2254C160.984 18.0357 160.698 18.7259 160.485 19.2937C160.423 19.3999 160.37 19.453 160.326 19.453C160.238 19.453 160.183 19.4068 160.158 19.3122C159.297 17.5532 158.408 15.7296 157.491 13.839C156.979 12.7287 156.273 11.2606 155.368 9.43231C155.312 9.32613 155.262 9.27303 155.218 9.27303C155.167 9.27303 155.139 9.33767 155.135 9.46925C154.966 11.9577 154.883 13.7767 154.883 14.924V17.0384C154.883 18.1372 155.033 18.6843 155.333 18.6843H156.436C156.506 18.6843 156.54 18.7097 156.54 18.7582V19.086C156.54 19.1483 156.52 19.1806 156.476 19.1806H153.089C153.015 19.1806 152.976 19.1552 152.976 19.1067V18.8159C152.976 18.7282 153.009 18.6843 153.071 18.6843H154.043C154.211 18.6843 154.294 18.5435 154.294 18.2642C154.294 17.2924 154.338 15.508 154.426 12.9134C154.456 12.4263 154.486 11.9369 154.509 11.4452C154.56 10.478 154.583 9.64699 154.583 8.94755C154.583 8.03805 154.269 7.42633 153.639 7.1147C153.503 7.04545 153.221 6.99235 152.796 6.95542C152.745 6.95542 152.722 6.93003 152.722 6.88155V6.53529C152.722 6.48451 152.748 6.46143 152.796 6.46143H155.266C155.379 6.46143 155.455 6.50528 155.499 6.593C156.079 7.74027 156.707 8.9891 157.381 10.3349C158.366 12.4563 159.433 14.6908 160.58 17.043C160.686 17.2 160.767 17.2231 160.822 17.1169C161.522 15.5264 162.27 13.839 163.068 12.0546C163.842 10.2703 164.634 8.4651 165.444 6.63917C165.506 6.52144 165.603 6.46143 165.735 6.46143H168.131C168.193 6.46143 168.225 6.48682 168.225 6.53529V6.86308C168.225 6.92541 168.207 6.95542 168.17 6.95542H167.244C167.057 6.95542 166.944 7.16779 166.907 7.59253C166.863 7.99188 166.843 9.55697 166.843 12.2901C166.843 14.2984 166.863 15.7365 166.907 16.6021C166.97 17.9941 167.154 18.6889 167.459 18.6889H168.535C168.586 18.6889 168.609 18.7189 168.609 18.7813V19.086Z" fill="white"/>
<path d="M177.84 15.6718C177.84 16.7083 177.51 17.5578 176.849 18.2249C176.145 18.9243 175.123 19.2729 173.782 19.2729C172.21 19.2729 171.099 18.9867 170.451 18.4119C170.377 18.3426 170.337 18.2157 170.337 18.0287C170.337 17.9848 170.335 17.6201 170.328 16.9345C170.321 16.2489 170.319 15.8796 170.319 15.8311C170.319 15.7503 170.363 15.7088 170.451 15.7088H170.834C170.908 15.7088 170.951 15.7503 170.965 15.8311C170.977 15.9119 170.995 16.1081 171.021 16.4197C171.058 17.0938 171.307 17.6432 171.769 18.0656C171.988 18.2664 172.3 18.435 172.703 18.5712C173.11 18.7073 173.474 18.7766 173.798 18.7766C175.044 18.7766 175.878 18.3611 176.295 17.5324C176.482 17.1469 176.577 16.6667 176.577 16.092C176.577 15.5818 176.399 15.1409 176.044 14.7739C175.644 14.363 174.95 13.9798 173.957 13.6243C172.835 13.2249 172.036 12.8233 171.561 12.417C170.931 11.8884 170.617 11.0574 170.617 9.92857C170.617 8.86903 171.048 7.97337 171.907 7.24393C172.563 6.68299 173.421 6.40137 174.49 6.40137C175.194 6.40137 175.85 6.51909 176.455 6.75686C176.842 6.9069 177.124 7.06156 177.306 7.22546C177.394 7.28779 177.443 7.37089 177.456 7.47707C177.526 7.95029 177.56 8.5874 177.56 9.3861C177.56 9.51768 177.542 9.58232 177.505 9.58232H177.055C177.011 9.58232 176.981 9.54538 176.962 9.46921C176.926 9.28915 176.882 9.05139 176.831 8.75822C176.739 8.32887 176.519 8.01723 176.175 7.82333C175.545 7.46091 174.818 7.28086 173.996 7.28086C173.253 7.28086 172.706 7.44014 172.35 7.7587C171.976 8.08879 171.789 8.67281 171.789 9.50845C171.789 10.0209 171.965 10.4664 172.313 10.845C172.482 11.032 172.81 11.2328 173.297 11.4429C173.703 11.6045 174.107 11.7707 174.513 11.9392C175.319 12.2877 175.792 12.5047 175.935 12.5855C176.404 12.8418 176.799 13.1511 177.124 13.5112C177.6 14.0537 177.84 14.7739 177.84 15.6718Z" fill="white"/>
<path d="M97.3441 42.0774C97.3441 42.1398 97.3256 42.1721 97.2887 42.1721H92.9766C92.9143 42.1721 92.882 42.1352 92.882 42.059V41.8074C92.882 41.7196 92.912 41.6758 92.9766 41.6758H94.2578C94.357 41.6758 94.3986 41.6204 94.3801 41.5073C94.3247 41.3088 94.11 40.6578 93.7338 39.5567C93.3598 38.4556 93.1544 37.8646 93.1174 37.7839C93.0666 37.6592 93.002 37.5969 92.9212 37.5969H88.4037C88.3483 37.6084 88.2998 37.6477 88.2629 37.71C88.1752 37.8785 88.0251 38.2732 87.8128 38.8942C87.6004 39.5151 87.4688 39.9376 87.4203 40.1615C87.3211 40.6601 87.2703 40.9602 87.2703 41.0594C87.2703 41.4703 87.3211 41.6758 87.4203 41.6758H88.8423C88.9162 41.6758 88.9554 41.7196 88.9554 41.8074V42.0774C88.9554 42.1398 88.9231 42.1721 88.8608 42.1721H85.0819C85.0196 42.1721 84.9873 42.1421 84.9873 42.0774V41.7681C84.9873 41.7058 85.0127 41.6735 85.0612 41.6735H85.8668C86.003 41.6735 86.19 41.3803 86.4231 40.794C86.6563 40.2077 87.3534 38.5156 88.5145 35.7132C89.2555 33.9496 90.1581 31.8098 91.2176 29.2959C91.2869 29.102 91.3538 28.9935 91.4231 28.9681C91.5985 28.9174 91.8224 28.8412 92.0971 28.735C92.141 28.7165 92.1918 28.7489 92.2472 28.8343C92.3026 28.9174 92.2772 29.0143 92.1733 29.1205C91.9863 29.3144 91.8917 29.5014 91.8917 29.6814C91.8847 29.8684 91.9286 30.1016 92.0232 30.3832C92.3603 31.3181 92.9674 33.0701 93.8469 35.6371C94.7264 38.204 95.3381 39.8637 95.6797 40.6186C96.0098 41.3226 96.2476 41.6758 96.3907 41.6758H97.2702C97.321 41.6758 97.3441 41.7196 97.3441 41.8074V42.0774ZM92.7135 36.7451C92.4572 36.0041 92.1825 35.1892 91.8894 34.3028C91.5962 33.4164 91.2938 32.4954 90.9822 31.5328C90.9637 31.452 90.9383 31.4012 90.9083 31.3827C90.8829 31.4081 90.8529 31.4566 90.8137 31.5328C90.0334 33.4418 89.4748 34.7945 89.1355 35.5932C88.7961 36.3919 88.6253 36.8028 88.6253 36.8282C88.6253 36.8651 88.653 36.8836 88.7084 36.8836H92.665C92.7273 36.8859 92.7435 36.8397 92.7135 36.7451Z" fill="white"/>
<path d="M105.998 38.6634C105.998 39.6999 105.668 40.5493 105.006 41.2165C104.302 41.9159 103.279 42.2645 101.938 42.2645C100.366 42.2645 99.2556 41.9782 98.607 41.4034C98.5331 41.3342 98.4938 41.2072 98.4938 41.0202C98.4938 40.9764 98.4915 40.6117 98.4846 39.9261C98.4777 39.2405 98.4754 38.8711 98.4754 38.8227C98.4754 38.7419 98.5192 38.7003 98.607 38.7003H98.9901C99.064 38.7003 99.1079 38.7419 99.1217 38.8227C99.1333 38.9035 99.1517 39.0997 99.1771 39.4113C99.2141 40.0854 99.4634 40.6348 99.925 41.0572C100.144 41.258 100.456 41.4242 100.86 41.5627C101.266 41.6989 101.631 41.7682 101.954 41.7682C103.201 41.7682 104.034 41.3527 104.452 40.5239C104.639 40.1361 104.733 39.656 104.733 39.0835C104.733 38.5734 104.556 38.1325 104.2 37.7654C103.801 37.3545 103.106 36.9713 102.113 36.6136C100.992 36.2142 100.193 35.8125 99.7173 35.4063C99.0871 34.8753 98.7732 34.0466 98.7732 32.9178C98.7732 31.8583 99.2025 30.9626 100.064 30.2332C100.719 29.6722 101.58 29.3906 102.647 29.3906C103.351 29.3906 104.006 29.5084 104.611 29.7461C104.997 29.8962 105.28 30.0508 105.463 30.2147C105.551 30.277 105.599 30.3625 105.613 30.4663C105.682 30.9395 105.717 31.5767 105.717 32.3754C105.717 32.5069 105.698 32.5716 105.661 32.5716H105.211C105.167 32.5716 105.137 32.5346 105.117 32.4585C105.08 32.2784 105.036 32.0406 104.985 31.7475C104.89 31.3181 104.673 31.0065 104.329 30.8126C103.699 30.4502 102.972 30.2701 102.15 30.2701C101.407 30.2701 100.86 30.4294 100.504 30.748C100.13 31.0781 99.9435 31.6621 99.9435 32.4977C99.9435 33.0102 100.119 33.4557 100.468 33.8366C100.636 34.0235 100.964 34.2244 101.449 34.4344C101.855 34.596 102.259 34.7622 102.665 34.9307C103.471 35.2793 103.944 35.4963 104.087 35.5771C104.556 35.8333 104.95 36.1426 105.276 36.5027C105.758 37.0452 105.998 37.7654 105.998 38.6634Z" fill="white"/>
<path d="M120.2 35.538C120.2 37.5094 119.726 39.0491 118.778 40.1594C118.447 40.5518 118.173 40.8358 117.953 41.0112C117.499 41.3736 116.905 41.6876 116.176 41.9553C115.59 42.1746 114.828 42.2831 113.893 42.2831C112.402 42.2831 111.28 42.0938 110.525 41.7129C109.976 41.4382 109.514 41.0874 109.14 40.6557C108.678 40.1317 108.348 39.5546 108.147 38.9244C107.905 38.1696 107.783 37.1747 107.783 35.9397C107.783 35.0971 107.898 34.2984 108.129 33.5436C108.404 32.6525 108.812 31.9 109.355 31.2883C109.897 30.6766 110.677 30.171 111.693 29.7717C112.411 29.4901 113.207 29.3516 114.089 29.3516C115.423 29.3516 116.444 29.5108 117.148 29.8294C117.94 30.1849 118.561 30.672 119.008 31.2883C119.802 32.3709 120.2 33.786 120.2 35.538ZM118.72 36.0436C118.72 35.1456 118.616 34.3607 118.411 33.6867C118.18 32.9065 117.813 32.2301 117.307 31.6576C116.845 31.1336 116.296 30.7366 115.661 30.4688C114.925 30.1641 114.189 30.0095 113.454 30.0095C112.501 30.0095 111.811 30.1618 111.386 30.4688C110.613 31.0182 110.082 31.623 109.796 32.2832C109.408 33.1558 109.216 34.2222 109.216 35.4826C109.216 37.3409 109.563 38.8044 110.255 39.8709C110.673 40.5195 111.301 41.0366 112.136 41.4244C112.792 41.7291 113.505 41.8838 114.279 41.8838C115.151 41.8838 115.957 41.6414 116.693 41.1543C117.268 40.7804 117.76 40.1386 118.17 39.2268C118.538 38.3958 118.72 37.3363 118.72 36.0436Z" fill="white"/>
<path d="M126.522 42.0953C126.522 42.1461 126.504 42.1692 126.467 42.1692H121.928C121.873 42.1692 121.838 42.16 121.825 42.1415C121.813 42.123 121.806 42.1023 121.806 42.0769V41.786C121.806 41.7306 121.815 41.6983 121.834 41.6867C121.852 41.6775 121.873 41.6729 121.898 41.6729H123.17C123.258 41.6729 123.302 41.5829 123.302 41.4005L123.283 31.7284C123.283 30.5488 123.175 29.9602 122.956 29.9602H121.767C121.679 29.9602 121.635 29.9302 121.635 29.8655V29.5377C121.635 29.4893 121.665 29.4639 121.73 29.4639H126.268C126.324 29.4639 126.354 29.4893 126.354 29.5377V29.884C126.354 29.9348 126.319 29.9579 126.25 29.9579H124.932C124.818 29.9579 124.763 30.0225 124.763 30.1541C124.752 35.8165 124.745 38.7413 124.745 38.9282C124.745 39.8516 124.747 40.3779 124.754 40.5095C124.798 41.2828 124.922 41.6706 125.128 41.6706H126.446C126.497 41.6706 126.52 41.696 126.52 41.7445V42.0953H126.522Z" fill="white"/>
<path d="M140.818 29.8319C140.818 29.9058 140.799 29.945 140.763 29.945H140.229C139.749 29.945 139.481 29.952 139.426 29.9635C139.394 30.0812 139.38 30.2197 139.38 30.3744C139.354 30.7737 139.336 31.397 139.324 32.2465C139.318 33.4492 139.334 35.0535 139.371 37.0548C139.433 40.6467 137.956 42.4426 134.936 42.4426C133.632 42.4426 132.575 42.3018 131.764 42.0225C130.954 41.7409 130.37 41.2492 130.015 40.5451C129.722 39.9588 129.555 39.077 129.518 37.8974C129.493 37.131 129.481 35.2105 129.481 32.1357C129.481 30.6768 129.359 29.9473 129.117 29.9473H127.854C127.785 29.9473 127.75 29.9173 127.75 29.8527V29.5618C127.75 29.488 127.785 29.4487 127.854 29.4487H132.448C132.522 29.4487 132.561 29.4741 132.561 29.5226V29.8135C132.561 29.9012 132.535 29.945 132.487 29.945H131.187C131.114 29.945 131.07 29.9981 131.056 30.1043C131.019 30.3605 131 32.415 131 36.27C131 37.6112 131.037 38.5184 131.114 38.9916C131.257 39.8826 131.672 40.559 132.358 41.0206C133.043 41.4823 133.976 41.7132 135.156 41.7132C136.328 41.7132 137.268 41.36 137.972 40.6559C138.507 40.1204 138.775 39.0585 138.775 37.475C138.775 35.379 138.757 33.83 138.72 32.8259C138.646 30.9053 138.445 29.945 138.122 29.945H136.914C136.864 29.945 136.834 29.9358 136.82 29.9173C136.808 29.8989 136.801 29.8781 136.801 29.8527V29.5434C136.801 29.481 136.838 29.451 136.914 29.451H140.733C140.795 29.451 140.827 29.481 140.827 29.5434V29.8319H140.818Z" fill="white"/>
<path d="M0.00205931 23.4123C-0.0256413 20.049 1.12393 17.0573 2.9337 14.285C3.41616 13.5463 3.96324 12.8492 4.47801 12.1336C4.53341 12.0551 4.57727 11.9558 4.65114 11.905C4.81734 11.7965 4.99971 11.7157 5.17514 11.6211C5.20977 11.8127 5.27902 12.0066 5.27209 12.1982C5.23978 13.0384 5.10127 13.8856 5.15667 14.7189C5.27902 16.5426 6.10773 18.1238 7.16958 19.555C8.86394 21.8357 10.646 24.054 12.3842 26.3001C13.603 27.8744 14.5887 29.5895 15.2374 31.4709C15.9553 33.553 16.0315 35.6675 15.4451 37.8166C14.9696 39.5641 14.1894 41.1499 13.2129 42.6573C12.7212 43.4167 12.5043 43.4468 11.821 42.8697C8.76929 40.2935 5.9346 37.5142 3.677 34.1971C2.36353 32.2673 1.30629 30.2151 0.653023 27.9529C0.223664 26.4663 -0.0256413 24.9658 0.00205931 23.4123Z" fill="white"/>
<path d="M38.3859 29.9983C38.3859 34.3866 36.4814 37.8838 33.3213 40.7993C31.3591 42.6113 29.0923 43.9294 26.6039 44.8343C23.6145 45.9239 20.5282 46.3163 17.3634 45.7277C17.1718 45.693 16.8602 45.5799 16.8463 45.4714C16.821 45.2891 16.9433 45.0328 17.0841 44.8851C18.5015 43.4008 19.9627 41.9581 21.3546 40.4507C23.2683 38.3778 25.235 36.3395 26.9917 34.1373C29.24 31.3164 30.9436 28.1863 31.3407 24.4952C31.6061 22.0229 31.2506 19.6268 30.5212 17.2722C30.3619 16.7598 30.138 16.2681 29.9764 15.7556C29.9141 15.5571 29.9372 15.3286 29.921 15.1162C30.1334 15.2085 30.3942 15.2501 30.5512 15.4001C31.2553 16.0788 31.9316 16.7852 32.6126 17.4892C34.7178 19.6706 36.3614 22.1522 37.444 24.9892C38.0534 26.5981 38.4436 28.2532 38.3859 29.9983Z" fill="white"/>
<path d="M18.2243 0.0923353C18.1758 0.30009 18.162 0.524003 18.072 0.710981C16.8808 3.17402 17.1555 5.59321 18.2843 7.98469C19.3439 10.2331 21.0359 12.0498 22.4371 14.065C23.5359 15.6439 24.607 17.239 25.2395 19.0788C26.3267 22.2436 25.9251 25.2837 24.3161 28.1438C23.4274 29.7273 22.3055 31.1793 21.2898 32.689C21.2575 32.7375 21.2252 32.7906 21.1813 32.8229C20.9413 32.9937 20.6943 33.1576 20.4519 33.3215C20.4173 33.0399 20.3296 32.7559 20.3549 32.4789C20.5465 30.256 19.9648 28.2153 18.6929 26.431C17.4141 24.6397 15.9459 22.9869 14.6117 21.2348C13.6006 19.9075 12.5618 18.5848 11.7354 17.1443C10.8029 15.5262 10.3874 13.7233 10.6066 11.8189C10.9114 9.1712 12.1002 6.89744 13.693 4.84068C14.9002 3.28483 16.2668 1.85132 17.5733 0.371649C17.7095 0.216988 17.9127 0.122344 18.0858 0C18.132 0.030009 18.1781 0.0623263 18.2243 0.0923353Z" fill="white"/>
</svg>
