<svg width="22" height="18" viewBox="0 0 22 18" fill="none" xmlns="http://www.w3.org/2000/svg">
<path d="M2.0625 0.75C1.51549 0.75 0.990886 0.967299 0.604092 1.35409C0.217298 1.74089 0 2.26549 0 2.8125L0 15.1875C0 15.7345 0.217298 16.2591 0.604092 16.6459C0.990886 17.0327 1.51549 17.25 2.0625 17.25H19.9375C20.4845 17.25 21.0091 17.0327 21.3959 16.6459C21.7827 16.2591 22 15.7345 22 15.1875V2.8125C22 2.26549 21.7827 1.74089 21.3959 1.35409C21.0091 0.967299 20.4845 0.75 19.9375 0.75H2.0625ZM19.9375 2.125C20.1198 2.125 20.2947 2.19743 20.4236 2.32636C20.5526 2.4553 20.625 2.63016 20.625 2.8125V11.0625L15.4344 8.38538C15.3054 8.32078 15.1594 8.29838 15.0171 8.32132C14.8747 8.34427 14.7431 8.41141 14.641 8.51325L9.53975 13.6145L5.88225 11.178C5.75019 11.0901 5.5918 11.0505 5.43392 11.0661C5.27603 11.0816 5.12838 11.1513 5.016 11.2633L1.37775 14.5V15.2425C1.37611 15.2242 1.37519 15.2059 1.375 15.1875V2.8125C1.375 2.63016 1.44743 2.4553 1.57636 2.32636C1.7053 2.19743 1.88016 2.125 2.0625 2.125H19.9375Z" fill="#314592"/>
</svg>
