<svg width="13" height="17" viewBox="0 0 13 17" fill="none" xmlns="http://www.w3.org/2000/svg">
<path d="M0.651078 15.6923H12.3489C12.5113 15.692 12.6679 15.7529 12.788 15.863C12.908 15.9731 12.9827 16.1243 12.9973 16.2871C13.012 16.4498 12.9656 16.6121 12.8672 16.7422C12.7689 16.8722 12.6257 16.9604 12.4659 16.9895L12.3489 17H0.651078C0.488678 17.0003 0.332052 16.9394 0.212041 16.8293C0.0920303 16.7193 0.0173332 16.568 0.00265961 16.4052C-0.012014 16.2425 0.0343991 16.0802 0.132759 15.9501C0.231119 15.8201 0.374298 15.7319 0.5341 15.7028L0.651078 15.6923H12.3489H0.651078ZM6.38302 0.0104616L6.5 3.63673e-08C6.6521 -5.09818e-05 6.79941 0.053578 6.91626 0.151548C7.03311 0.249517 7.1121 0.38562 7.13948 0.536154L7.14988 0.653846V12.1511L10.6358 8.64515C10.7434 8.53684 10.8853 8.46992 11.0368 8.45606C11.1883 8.4422 11.3399 8.48228 11.4651 8.56931L11.5561 8.64515C11.6635 8.7535 11.7298 8.89635 11.7433 9.0488C11.7569 9.20126 11.7168 9.35366 11.6302 9.47946L11.5548 9.56969L6.96011 14.1937C6.85242 14.3018 6.71044 14.3685 6.55891 14.3821C6.40738 14.3957 6.2559 14.3554 6.13087 14.2682L6.03988 14.1937L1.44523 9.56969C1.33009 9.45437 1.26207 9.29984 1.25455 9.13655C1.24704 8.97327 1.30059 8.81308 1.40465 8.68754C1.5087 8.56201 1.65572 8.48025 1.81673 8.45836C1.97773 8.43648 2.14104 8.47606 2.27448 8.56931L2.36416 8.64515L5.85012 12.1511V0.653846C5.85007 0.500813 5.90337 0.35261 6.00075 0.235046C6.09812 0.117483 6.2334 0.0380076 6.38302 0.0104616L6.5 3.63673e-08L6.38302 0.0104616Z" fill="#AE280B"/>
</svg>
