<svg width="178" height="46" viewBox="0 0 178 46" fill="none" xmlns="http://www.w3.org/2000/svg">
<path d="M57.4486 15.8683C57.4486 16.8471 57.0954 17.6458 56.3913 18.2645C55.6065 18.95 54.5261 19.294 53.155 19.294C53.0049 19.294 52.5225 19.2755 51.7053 19.2386C50.8881 19.2017 50.2856 19.1832 49.9001 19.1832H48.4597C48.4089 19.1832 48.3858 19.1578 48.3858 19.1093V18.7815C48.3858 18.7192 48.4112 18.6892 48.4597 18.6892H49.7593C49.914 18.6892 49.9925 18.5807 49.9925 18.3614C49.9925 18.2875 49.9809 17.348 49.9555 15.5452C49.9302 13.7423 49.9186 12.752 49.9186 12.5697V8.79547C49.8632 7.63435 49.7409 7.05495 49.5539 7.05495H48.1319C48.0811 7.05495 48.0581 7.02032 48.0581 6.95107V6.65098C48.0581 6.59558 48.0881 6.56788 48.1527 6.56788H50.9505C51.0382 6.56788 51.3729 6.55865 51.9569 6.54018C52.5409 6.52171 52.8826 6.51248 52.9818 6.51248H53.889C54.1822 6.52402 54.5839 6.59789 55.0963 6.72716C55.5765 6.91414 55.9827 7.20499 56.3128 7.59742C56.6983 8.0591 56.8922 8.62465 56.8922 9.29177C56.8922 9.79038 56.8045 10.2174 56.6314 10.5729C56.5575 10.723 56.389 10.9653 56.1259 11.3024C55.7819 11.7525 55.3064 12.1403 54.6947 12.4727C54.57 12.542 54.5631 12.5951 54.6762 12.632C55.3687 12.8444 55.992 13.1999 56.5483 13.6985C57.1462 14.234 57.4486 14.9588 57.4486 15.8683ZM55.4564 10.0397C55.4564 9.22945 55.1725 8.53231 54.6046 7.94829C54.0368 7.36427 53.2796 7.07342 52.3309 7.07342C51.9061 7.07342 51.6314 7.09188 51.5068 7.12882C51.4121 7.15421 51.359 7.21654 51.3475 7.3158C51.336 7.43352 51.329 9.04939 51.329 12.1611C51.329 12.2788 51.3637 12.3388 51.4329 12.3388C51.4144 12.3388 51.5414 12.3365 51.8115 12.3296C52.0816 12.3227 52.3516 12.3204 52.6217 12.3204C52.7395 12.3204 52.9795 12.3365 53.3419 12.3665C53.7713 12.4104 53.9975 12.4312 54.016 12.4312C54.0668 12.4381 54.143 12.4127 54.2491 12.3573C54.6116 12.1703 54.8978 11.8702 55.1102 11.4593C55.341 11.0138 55.4564 10.5406 55.4564 10.0397ZM55.8581 16.113C55.8581 15.2474 55.5718 14.5249 54.9971 13.9524C54.1914 13.1491 53.1157 12.7451 51.7699 12.7451C51.6084 12.7451 51.4883 12.7636 51.4144 12.8005C51.3706 12.8121 51.3498 12.8744 51.3498 12.9875V17.0941C51.3798 18.0544 51.4837 18.5715 51.6591 18.6476C51.9962 18.7838 52.4948 18.8531 53.155 18.8531C53.9721 18.8531 54.6046 18.6499 55.0548 18.246C55.5903 17.752 55.8581 17.041 55.8581 16.113Z" fill="black"/>
<path d="M70.7424 19.0858C70.7424 19.1481 70.7239 19.1804 70.687 19.1804H66.375C66.3126 19.1804 66.2803 19.1435 66.2803 19.0673V18.8157C66.2803 18.728 66.3103 18.6841 66.375 18.6841H67.6561C67.7554 18.6841 67.7969 18.6287 67.7784 18.5156C67.723 18.3171 67.5061 17.6662 67.1321 16.5651C66.7581 15.464 66.5527 14.873 66.5158 14.7922C66.465 14.6676 66.4003 14.6052 66.3195 14.6052H61.8021C61.7467 14.6168 61.6982 14.656 61.6612 14.7183C61.5735 14.8869 61.4235 15.2816 61.2111 15.9025C60.9987 16.5235 60.8672 16.9459 60.8187 17.1698C60.7194 17.6685 60.6686 17.9685 60.6686 18.0678C60.6686 18.4787 60.7194 18.6865 60.8187 18.6865H62.2406C62.3145 18.6865 62.3538 18.7303 62.3538 18.818V19.0904C62.3538 19.1527 62.3214 19.1851 62.2591 19.1851H58.4803C58.418 19.1851 58.3856 19.1551 58.3856 19.0904V18.7811C58.3856 18.7188 58.411 18.6888 58.4595 18.6888H59.2651C59.4013 18.6888 59.5883 18.3956 59.8215 17.8093C60.0546 17.2229 60.7517 15.5309 61.9128 12.7285C62.6538 10.9626 63.5564 8.82505 64.616 6.31122C64.6852 6.11732 64.7522 6.00882 64.8214 5.98343C64.9968 5.93496 65.2208 5.85647 65.4955 5.75028C65.5393 5.73182 65.5901 5.76414 65.6455 5.84955C65.7009 5.93265 65.6755 6.0296 65.5716 6.13578C65.3847 6.32969 65.29 6.51667 65.29 6.69672C65.2831 6.8837 65.3269 7.11685 65.4216 7.39847C65.7586 8.33336 66.3657 10.0854 67.2452 12.6523C68.1247 15.2193 68.7364 16.879 69.0781 17.6338C69.4082 18.3379 69.6459 18.6911 69.789 18.6911H70.6685C70.7193 18.6911 70.7424 18.7349 70.7424 18.8226V19.0858ZM66.1118 13.7534C65.8556 13.0125 65.5809 12.1976 65.2877 11.3112C64.9945 10.4248 64.6921 9.5014 64.3805 8.54112C64.362 8.46032 64.3366 8.40954 64.3066 8.39107C64.2812 8.41647 64.2512 8.46494 64.212 8.54112C63.4318 10.4501 62.8731 11.8029 62.5338 12.6016C62.1945 13.4003 62.0237 13.8112 62.0237 13.8365C62.0237 13.8735 62.0514 13.8919 62.1068 13.8919H66.0633C66.1256 13.8943 66.1418 13.8481 66.1118 13.7534Z" fill="black"/>
<path d="M85.0083 10.2745C85.0083 11.2232 84.6828 12.0404 84.0365 12.726C83.3555 13.4439 82.3536 13.8017 81.024 13.8017C80.4077 13.8017 79.6852 13.6932 78.8634 13.4739C78.8126 13.4623 78.7895 13.4808 78.7895 13.5293V16.5694C78.7895 17.9914 78.9165 18.7024 79.1727 18.7024H80.8555C80.9294 18.7024 80.9686 18.7393 80.9686 18.8155V19.0671C80.9686 19.141 80.9501 19.1802 80.9132 19.1802H75.8717C75.8209 19.1802 75.7978 19.1548 75.7978 19.1063V18.8155C75.7978 18.7416 75.8278 18.7024 75.8925 18.7024H77.1829C77.2821 18.7024 77.3329 18.6239 77.3329 18.4692V8.83403C77.3329 7.67292 77.2544 7.09351 77.0998 7.09351H75.8186C75.7309 7.09351 75.687 7.06812 75.687 7.01965V6.69186C75.687 6.6226 75.724 6.58798 75.8002 6.58798H78.1385C78.2447 6.58798 78.6579 6.57875 79.3781 6.56028C80.0984 6.54181 80.4769 6.53258 80.5139 6.53258C81.1995 6.53258 81.7604 6.57875 82.1967 6.67339C82.9146 6.81651 83.5402 7.16507 84.078 7.72139C84.6967 8.36774 85.0083 9.21953 85.0083 10.2745ZM83.5402 10.4037C83.5402 9.57502 83.2308 8.85481 82.6145 8.24309C81.892 7.51364 80.8786 7.14892 79.5744 7.14892C79.2119 7.14892 79.0065 7.15584 78.958 7.16738C78.9072 7.17892 78.8772 7.24125 78.8634 7.35436C78.8264 7.68446 78.808 8.64475 78.808 10.2352C78.808 10.2906 78.8057 10.7338 78.7987 11.5579C78.7918 12.3843 78.7895 12.816 78.7895 12.8529C78.7895 12.9337 78.8334 12.9937 78.9211 13.0307C79.3204 13.1807 79.9183 13.2546 80.717 13.2546C81.6519 13.2546 82.3444 13.0307 82.7946 12.5805C83.2909 12.0912 83.5402 11.364 83.5402 10.4037Z" fill="black"/>
<path d="M98.4522 19.067C98.4522 19.1409 98.4268 19.1801 98.3784 19.1801H95.3359C95.2667 19.1801 95.1905 19.1432 95.1028 19.067C94.865 18.8616 94.4287 18.3376 93.7939 17.495C93.4569 17.0402 93.1199 16.5855 92.7828 16.1284C92.4089 15.5675 91.8918 14.6949 91.2293 13.5084C91.1854 13.4022 91.1347 13.3491 91.0793 13.3491C90.7861 13.3491 90.269 13.3122 89.5257 13.236C89.4265 13.206 89.3757 13.236 89.3757 13.3307C89.3757 13.4484 89.378 13.8431 89.3849 14.5149C89.3918 15.1866 89.3941 15.8907 89.3941 16.634C89.3941 18.0005 89.5349 18.6838 89.8143 18.6838H91.4786C91.5409 18.6838 91.5733 18.7138 91.5733 18.7761V19.0855C91.5733 19.1478 91.5479 19.1801 91.4994 19.1801H86.541C86.4856 19.1801 86.451 19.1709 86.4371 19.1524C86.4256 19.1339 86.4186 19.1132 86.4186 19.0878V18.7969C86.4186 18.7415 86.4279 18.7069 86.4463 18.6977C86.4648 18.6884 86.4902 18.6838 86.5202 18.6838H87.746C87.8452 18.6838 87.896 18.5869 87.896 18.393V13.3976V9.52415C87.8845 7.80902 87.7737 6.9503 87.5682 6.9503H86.3794C86.3171 6.9503 86.2848 6.92491 86.2848 6.87644V6.53018C86.2848 6.47939 86.3101 6.45631 86.3586 6.45631H89.1564C89.2441 6.45631 89.6019 6.44477 90.2275 6.41938C90.8553 6.39398 91.2062 6.38244 91.2801 6.38244C91.6864 6.38244 92.0811 6.41476 92.4689 6.47709C93.3299 6.61328 94.0224 6.93645 94.5464 7.43968C95.1582 8.01908 95.4629 8.75315 95.4629 9.63726C95.4629 10.6483 95.1628 11.477 94.5649 12.1257C94.1956 12.525 93.5954 12.8644 92.7598 13.146C92.709 13.1714 92.6905 13.2083 92.7044 13.2591C92.9791 13.977 93.6115 14.8958 94.6042 16.0199C95.1212 16.6063 95.4998 17.0264 95.7353 17.2826C96.1531 17.7189 96.5086 18.0467 96.8017 18.266C97.2011 18.5592 97.6997 18.7046 98.2976 18.7046C98.3968 18.7046 98.4476 18.73 98.4476 18.7785V19.067H98.4522ZM93.9139 10.1336C93.9139 9.30485 93.6392 8.6285 93.0899 8.1045C92.3235 7.38197 91.2131 7.01956 89.7589 7.01956C89.5465 7.01956 89.4311 7.06341 89.4126 7.15113C89.4126 8.94013 89.4011 10.0574 89.3757 10.5006V12.6335C89.3757 12.7028 89.4195 12.7467 89.5073 12.7651C89.6504 12.7905 90.0474 12.8021 90.6961 12.8021C90.9638 12.8021 91.2662 12.7767 91.5986 12.7282C91.9334 12.6774 92.0834 12.6543 92.0534 12.6543C93.2953 12.3265 93.9139 11.4863 93.9139 10.1336Z" fill="black"/>
<path d="M111.663 12.5465C111.663 14.5179 111.19 16.0575 110.241 17.1679C109.911 17.5603 109.636 17.8442 109.417 18.0197C108.962 18.3821 108.369 18.696 107.639 18.9638C107.053 19.1831 106.291 19.2916 105.356 19.2916C103.865 19.2916 102.743 19.1023 101.989 18.7214C101.439 18.4467 100.977 18.0935 100.603 17.6642C100.142 17.1402 99.8117 16.5631 99.6109 15.9329C99.3685 15.1781 99.2462 14.1831 99.2462 12.9482C99.2462 12.1056 99.3616 11.3069 99.5924 10.5521C99.8671 9.66102 100.276 8.90849 100.818 8.29677C101.361 7.68505 102.141 7.17951 103.157 6.78247C103.874 6.50085 104.673 6.36235 105.553 6.36235C106.887 6.36235 107.907 6.52162 108.611 6.84018C109.403 7.19567 110.024 7.68274 110.474 8.29908C111.266 9.3794 111.663 10.7944 111.663 12.5465ZM110.183 13.052C110.183 12.1541 110.079 11.3692 109.874 10.6952C109.643 9.91495 109.276 9.23859 108.771 8.66611C108.309 8.14211 107.759 7.74507 107.125 7.47729C106.388 7.17259 105.652 7.01793 104.918 7.01793C103.965 7.01793 103.274 7.17028 102.85 7.47729C102.076 8.02669 101.545 8.63149 101.259 9.29168C100.871 10.1643 100.68 11.2307 100.68 12.4911C100.68 14.3493 101.026 15.8129 101.718 16.8793C102.136 17.528 102.762 18.0451 103.6 18.4329C104.255 18.7376 104.969 18.8922 105.742 18.8922C106.615 18.8922 107.42 18.6499 108.157 18.1628C108.729 17.7888 109.223 17.1471 109.634 16.2353C109.999 15.4043 110.183 14.3447 110.183 13.052Z" fill="black"/>
<path d="M125.723 13.6798C125.723 13.7606 125.686 13.8022 125.61 13.8022H124.274C124.2 13.8022 124.161 13.8391 124.161 13.9153C124.161 13.8668 124.154 14.063 124.138 14.5086C124.121 14.9541 124.114 15.3904 124.114 15.8128C124.114 16.5861 124.135 17.2994 124.179 17.955C124.179 18.0427 124.144 18.0935 124.075 18.105C123.863 18.105 123.406 18.2666 122.699 18.5921C121.633 19.0722 120.502 19.3123 119.304 19.3123C117.956 19.3123 117.005 19.2061 116.451 18.9937C115.435 18.5944 114.636 17.9804 114.054 17.1516C113.406 16.2168 113.083 14.931 113.083 13.2967C113.083 11.6739 113.607 10.2196 114.655 8.92689C115.403 8.01046 116.538 7.31564 118.06 6.84011C118.888 6.58388 119.962 6.45692 121.277 6.45692C122.644 6.45692 123.653 6.57234 124.308 6.80318C124.382 6.82857 124.421 6.87243 124.421 6.93475C124.421 6.96476 124.405 7.10557 124.375 7.35488C124.338 7.6365 124.315 7.79809 124.311 7.84195C124.248 8.47906 124.204 8.85302 124.179 8.96382C124.161 9.03307 124.126 9.0677 124.075 9.0677C123.987 9.0677 123.944 9.04 123.944 8.98229C123.944 8.83224 123.925 8.68681 123.888 8.5437C123.819 8.30132 123.655 8.09125 123.392 7.91582C122.669 7.4426 121.568 7.20483 120.089 7.20483C119.278 7.20483 118.604 7.29948 118.069 7.48646C117.365 7.73576 116.702 8.19051 116.086 8.85302C115.093 9.92642 114.599 11.2907 114.599 12.9504C114.599 14.7786 115.13 16.2214 116.19 17.2809C116.795 17.8926 117.48 18.3035 118.249 18.5159C118.759 18.6544 119.447 18.7213 120.308 18.7213C121.074 18.7213 121.82 18.479 122.545 17.9919C122.6 17.9226 122.63 17.8672 122.63 17.8234V16.1683C122.63 15.575 122.623 15.1618 122.612 14.9241C122.568 14.1761 122.503 13.8022 122.415 13.8022H120.405C120.331 13.8022 120.292 13.7422 120.292 13.6244V13.4352C120.292 13.3405 120.336 13.2943 120.423 13.2943H125.596C125.684 13.2943 125.728 13.3359 125.728 13.4167V13.6798H125.723Z" fill="black"/>
<path d="M139.269 19.067C139.269 19.1409 139.244 19.1801 139.195 19.1801H136.155C136.086 19.1801 136.01 19.1432 135.922 19.067C135.684 18.8616 135.248 18.3376 134.613 17.495C134.276 17.0402 133.939 16.5855 133.602 16.1284C133.228 15.5675 132.709 14.6949 132.048 13.5084C132.005 13.4022 131.956 13.3491 131.898 13.3491C131.605 13.3491 131.088 13.3122 130.345 13.236C130.246 13.206 130.195 13.236 130.195 13.3307C130.195 13.4484 130.197 13.8431 130.204 14.5149C130.211 15.1866 130.213 15.8907 130.213 16.634C130.213 18.0005 130.354 18.6838 130.633 18.6838H132.298C132.36 18.6838 132.392 18.7138 132.392 18.7761V19.0855C132.392 19.1478 132.367 19.1801 132.319 19.1801H127.36C127.305 19.1801 127.27 19.1709 127.256 19.1524C127.245 19.1339 127.238 19.1132 127.238 19.0878V18.7969C127.238 18.7415 127.247 18.7069 127.265 18.6977C127.284 18.6884 127.309 18.6838 127.339 18.6838H128.565C128.664 18.6838 128.715 18.5869 128.715 18.393V13.3976V9.52415C128.704 7.80902 128.593 6.9503 128.387 6.9503H127.199C127.136 6.9503 127.104 6.92491 127.104 6.87644V6.53018C127.104 6.47939 127.129 6.45631 127.178 6.45631H129.976C130.063 6.45631 130.421 6.44477 131.047 6.41938C131.674 6.39398 132.025 6.38244 132.099 6.38244C132.506 6.38244 132.9 6.41476 133.288 6.47709C134.149 6.61328 134.842 6.93645 135.366 7.43968C135.977 8.01908 136.282 8.75315 136.282 9.63726C136.282 10.6483 135.982 11.477 135.384 12.1257C135.017 12.525 134.415 12.8644 133.579 13.146C133.528 13.1714 133.51 13.2083 133.524 13.2591C133.798 13.977 134.431 14.8958 135.423 16.0199C135.94 16.6063 136.319 17.0264 136.554 17.2826C136.972 17.7189 137.328 18.0467 137.621 18.266C138.02 18.5592 138.519 18.7046 139.117 18.7046C139.216 18.7046 139.267 18.73 139.267 18.7785V19.067H139.269ZM134.731 10.1336C134.731 9.30485 134.456 8.6285 133.907 8.1045C133.14 7.38197 132.03 7.01956 130.576 7.01956C130.363 7.01956 130.248 7.06341 130.229 7.15113C130.229 8.94013 130.218 10.0574 130.193 10.5006V12.6335C130.193 12.7028 130.236 12.7467 130.324 12.7651C130.467 12.7905 130.864 12.8021 131.513 12.8021C131.781 12.8021 132.083 12.7767 132.415 12.7282C132.75 12.6774 132.9 12.6543 132.868 12.6543C134.112 12.3265 134.731 11.4863 134.731 10.1336Z" fill="black"/>
<path d="M151.806 19.0858C151.806 19.1481 151.787 19.1804 151.75 19.1804H147.436C147.374 19.1804 147.341 19.1435 147.341 19.0673V18.8157C147.341 18.728 147.371 18.6841 147.436 18.6841H148.717C148.816 18.6841 148.858 18.6287 148.84 18.5156C148.784 18.3171 148.569 17.6662 148.193 16.5651C147.817 15.464 147.614 14.873 147.575 14.7922C147.524 14.6676 147.459 14.6052 147.378 14.6052H142.859C142.803 14.6168 142.755 14.656 142.718 14.7183C142.63 14.8869 142.48 15.2816 142.268 15.9025C142.055 16.5235 141.924 16.9459 141.875 17.1698C141.776 17.6685 141.725 17.9685 141.725 18.0678C141.725 18.4787 141.776 18.6865 141.875 18.6865H143.297C143.371 18.6865 143.41 18.7303 143.41 18.818V19.0904C143.41 19.1527 143.378 19.1851 143.316 19.1851H139.541C139.479 19.1851 139.447 19.1551 139.447 19.0904V18.7811C139.447 18.7188 139.472 18.6888 139.521 18.6888H140.326C140.462 18.6888 140.649 18.3956 140.883 17.8093C141.116 17.2229 141.813 15.5309 142.974 12.7285C143.717 10.9626 144.618 8.82505 145.677 6.31122C145.746 6.11732 145.813 6.00882 145.883 5.98343C146.058 5.93496 146.282 5.85647 146.557 5.75028C146.6 5.73182 146.651 5.76414 146.707 5.84955C146.762 5.93265 146.737 6.0296 146.633 6.13578C146.446 6.32969 146.351 6.51667 146.351 6.69672C146.344 6.8837 146.388 7.11685 146.483 7.39847C146.82 8.33336 147.427 10.0854 148.306 12.6523C149.186 15.2193 149.798 16.879 150.139 17.6338C150.469 18.3379 150.707 18.6911 150.85 18.6911H151.73C151.78 18.6911 151.804 18.7349 151.804 18.8226V19.0858H151.806ZM147.175 13.7534C146.919 13.0125 146.644 12.1976 146.351 11.3112C146.058 10.4248 145.756 9.5014 145.444 8.54112C145.425 8.46032 145.4 8.40954 145.37 8.39107C145.345 8.41647 145.315 8.46494 145.278 8.54112C144.497 10.4501 143.939 11.8029 143.597 12.6016C143.258 13.4003 143.087 13.8112 143.087 13.8365C143.087 13.8735 143.115 13.8919 143.172 13.8919H147.129C147.189 13.8943 147.205 13.8481 147.175 13.7534Z" fill="black"/>
<path d="M168.609 19.0862C168.609 19.1485 168.576 19.1808 168.514 19.1808H164.239C164.151 19.1808 164.107 19.1508 164.107 19.0862V18.7769C164.107 18.7145 164.137 18.6845 164.2 18.6845H165.211C165.368 18.6845 165.444 18.606 165.444 18.4514V13.6615C165.444 11.1984 165.418 9.55257 165.37 8.72155C165.358 8.5415 165.326 8.44916 165.275 8.44916C165.238 8.44916 165.192 8.50918 165.135 8.62691C165.003 8.89468 163.74 11.7617 161.346 17.2256C160.984 18.0359 160.698 18.7261 160.485 19.2939C160.423 19.4001 160.37 19.4532 160.326 19.4532C160.238 19.4532 160.183 19.4071 160.158 19.3124C159.297 17.5534 158.408 15.7298 157.491 13.8392C156.979 12.7289 156.273 11.2608 155.368 9.43253C155.312 9.32635 155.262 9.27326 155.218 9.27326C155.167 9.27326 155.139 9.33789 155.135 9.46947C154.966 11.9579 154.883 13.7769 154.883 14.9242V17.0387C154.883 18.1374 155.033 18.6845 155.333 18.6845H156.437C156.506 18.6845 156.54 18.7099 156.54 18.7584V19.0862C156.54 19.1485 156.52 19.1808 156.476 19.1808H153.089C153.016 19.1808 152.976 19.1554 152.976 19.107V18.8161C152.976 18.7284 153.009 18.6845 153.071 18.6845H154.043C154.211 18.6845 154.294 18.5437 154.294 18.2644C154.294 17.2926 154.338 15.5082 154.426 12.9136C154.456 12.4265 154.486 11.9371 154.509 11.4454C154.56 10.4782 154.583 9.64721 154.583 8.94777C154.583 8.03827 154.269 7.42655 153.639 7.11492C153.503 7.04567 153.221 6.99257 152.796 6.95564C152.745 6.95564 152.722 6.93025 152.722 6.88177V6.53552C152.722 6.48473 152.748 6.46165 152.796 6.46165H155.266C155.379 6.46165 155.455 6.50551 155.499 6.59322C156.079 7.74049 156.707 8.98933 157.381 10.3351C158.366 12.4565 159.433 14.691 160.58 17.0433C160.686 17.2002 160.767 17.2233 160.822 17.1171C161.522 15.5267 162.27 13.8392 163.069 12.0549C163.842 10.2705 164.634 8.46532 165.444 6.63939C165.506 6.52167 165.603 6.46165 165.735 6.46165H168.131C168.193 6.46165 168.225 6.48704 168.225 6.53552V6.86331C168.225 6.92563 168.207 6.95564 168.17 6.95564H167.244C167.057 6.95564 166.944 7.16801 166.907 7.59275C166.863 7.9921 166.843 9.55719 166.843 12.2903C166.843 14.2986 166.863 15.7367 166.907 16.6024C166.97 17.9943 167.154 18.6891 167.459 18.6891H168.535C168.586 18.6891 168.609 18.7192 168.609 18.7815V19.0862Z" fill="black"/>
<path d="M177.84 15.6718C177.84 16.7083 177.51 17.5578 176.849 18.2249C176.145 18.9243 175.123 19.2729 173.782 19.2729C172.21 19.2729 171.099 18.9867 170.451 18.4119C170.377 18.3426 170.337 18.2157 170.337 18.0287C170.337 17.9848 170.335 17.6201 170.328 16.9345C170.321 16.2489 170.319 15.8796 170.319 15.8311C170.319 15.7503 170.363 15.7088 170.451 15.7088H170.834C170.908 15.7088 170.951 15.7503 170.965 15.8311C170.977 15.9119 170.995 16.1081 171.021 16.4197C171.058 17.0938 171.307 17.6432 171.769 18.0656C171.988 18.2664 172.3 18.4349 172.704 18.5711C173.11 18.7073 173.475 18.7766 173.798 18.7766C175.044 18.7766 175.878 18.3611 176.295 17.5324C176.482 17.1469 176.577 16.6667 176.577 16.0919C176.577 15.5818 176.399 15.1409 176.044 14.7739C175.644 14.363 174.95 13.9798 173.957 13.6243C172.835 13.2249 172.036 12.8233 171.561 12.417C170.931 11.8884 170.617 11.0574 170.617 9.92856C170.617 8.86902 171.048 7.97337 171.907 7.24392C172.563 6.68298 173.421 6.40136 174.49 6.40136C175.194 6.40136 175.85 6.51909 176.455 6.75685C176.842 6.90689 177.124 7.06155 177.306 7.22545C177.394 7.28778 177.443 7.37088 177.456 7.47706C177.526 7.95028 177.56 8.58739 177.56 9.38609C177.56 9.51767 177.542 9.58231 177.505 9.58231H177.055C177.011 9.58231 176.981 9.54537 176.962 9.4692C176.926 9.28914 176.882 9.05138 176.831 8.75821C176.739 8.32886 176.519 8.01722 176.175 7.82332C175.545 7.4609 174.818 7.28085 173.996 7.28085C173.253 7.28085 172.706 7.44013 172.35 7.75869C171.976 8.08878 171.789 8.6728 171.789 9.50844C171.789 10.0209 171.965 10.4664 172.313 10.845C172.482 11.032 172.81 11.2328 173.297 11.4429C173.703 11.6044 174.107 11.7707 174.513 11.9392C175.319 12.2877 175.792 12.5047 175.935 12.5855C176.404 12.8417 176.799 13.1511 177.124 13.5112C177.6 14.0536 177.84 14.7739 177.84 15.6718Z" fill="black"/>
<path d="M97.3441 42.0773C97.3441 42.1397 97.3256 42.172 97.2887 42.172H92.9766C92.9143 42.172 92.882 42.135 92.882 42.0589V41.8072C92.882 41.7195 92.912 41.6757 92.9766 41.6757H94.2578C94.357 41.6757 94.3986 41.6203 94.3801 41.5072C94.3247 41.3086 94.1101 40.6577 93.7338 39.5566C93.3598 38.4555 93.1544 37.8645 93.1175 37.7837C93.0667 37.6591 93.002 37.5968 92.9212 37.5968H88.4037C88.3483 37.6083 88.2999 37.6475 88.2629 37.7099C88.1752 37.8784 88.0252 38.2731 87.8128 38.8941C87.6004 39.515 87.4688 39.9375 87.4204 40.1614C87.3211 40.66 87.2703 40.9601 87.2703 41.0593C87.2703 41.4702 87.3211 41.6757 87.4204 41.6757H88.8423C88.9162 41.6757 88.9554 41.7195 88.9554 41.8072V42.0773C88.9554 42.1397 88.9231 42.172 88.8608 42.172H85.082C85.0196 42.172 84.9873 42.142 84.9873 42.0773V41.768C84.9873 41.7057 85.0127 41.6734 85.0612 41.6734H85.8668C86.003 41.6734 86.19 41.3802 86.4231 40.7939C86.6563 40.2075 87.3534 38.5155 88.5145 35.7131C89.2555 33.9495 90.1581 31.8096 91.2177 29.2958C91.2869 29.1019 91.3538 28.9934 91.4231 28.968C91.5985 28.9172 91.8224 28.8411 92.0971 28.7349C92.141 28.7164 92.1918 28.7487 92.2472 28.8341C92.3026 28.9172 92.2772 29.0142 92.1733 29.1204C91.9863 29.3143 91.8917 29.5013 91.8917 29.6813C91.8848 29.8683 91.9286 30.1014 92.0233 30.3831C92.3603 31.318 92.9674 33.07 93.8469 35.6369C94.7264 38.2039 95.3381 39.8636 95.6798 40.6184C96.0099 41.3225 96.2476 41.6757 96.3907 41.6757H97.2702C97.321 41.6757 97.3441 41.7195 97.3441 41.8072V42.0773ZM92.7135 36.745C92.4573 36.004 92.1826 35.1891 91.8894 34.3027C91.5962 33.4163 91.2938 32.4952 90.9822 31.5326C90.9637 31.4519 90.9383 31.4011 90.9083 31.3826C90.8829 31.408 90.8529 31.4565 90.8137 31.5326C90.0335 33.4417 89.4748 34.7944 89.1355 35.5931C88.7962 36.3918 88.6253 36.8027 88.6253 36.8281C88.6253 36.865 88.653 36.8835 88.7084 36.8835H92.665C92.7273 36.8858 92.7435 36.8396 92.7135 36.745Z" fill="black"/>
<path d="M105.998 38.6635C105.998 39.6999 105.668 40.5494 105.006 41.2165C104.302 41.916 103.279 42.2645 101.938 42.2645C100.366 42.2645 99.2556 41.9783 98.607 41.4035C98.5331 41.3343 98.4939 41.2073 98.4939 41.0203C98.4939 40.9765 98.4916 40.6117 98.4846 39.9261C98.4777 39.2406 98.4754 38.8712 98.4754 38.8227C98.4754 38.7419 98.5193 38.7004 98.607 38.7004H98.9902C99.064 38.7004 99.1079 38.7419 99.1217 38.8227C99.1333 38.9035 99.1518 39.0997 99.1772 39.4114C99.2141 40.0854 99.4634 40.6348 99.9251 41.0572C100.144 41.2581 100.456 41.4243 100.86 41.5628C101.266 41.699 101.631 41.7682 101.954 41.7682C103.201 41.7682 104.034 41.3527 104.452 40.524C104.639 40.1362 104.733 39.6561 104.733 39.0836C104.733 38.5734 104.556 38.1325 104.2 37.7655C103.801 37.3546 103.106 36.9714 102.113 36.6136C100.992 36.2143 100.193 35.8126 99.7173 35.4063C99.0871 34.8754 98.7732 34.0467 98.7732 32.9179C98.7732 31.8583 99.2025 30.9627 100.064 30.2332C100.719 29.6723 101.58 29.3907 102.647 29.3907C103.351 29.3907 104.006 29.5084 104.611 29.7462C104.997 29.8962 105.281 30.0509 105.463 30.2148C105.551 30.2771 105.599 30.3625 105.613 30.4664C105.682 30.9396 105.717 31.5767 105.717 32.3754C105.717 32.507 105.698 32.5716 105.661 32.5716H105.211C105.167 32.5716 105.137 32.5347 105.117 32.4585C105.08 32.2785 105.036 32.0407 104.985 31.7475C104.89 31.3182 104.673 31.0066 104.329 30.8126C103.699 30.4502 102.972 30.2702 102.15 30.2702C101.407 30.2702 100.86 30.4295 100.504 30.748C100.131 31.0781 99.9435 31.6621 99.9435 32.4978C99.9435 33.0102 100.119 33.4557 100.468 33.8366C100.636 34.0236 100.964 34.2244 101.449 34.4345C101.855 34.5961 102.259 34.7623 102.665 34.9308C103.471 35.2794 103.944 35.4964 104.087 35.5771C104.556 35.8334 104.95 36.1427 105.276 36.5028C105.758 37.0453 105.998 37.7655 105.998 38.6635Z" fill="black"/>
<path d="M120.2 35.5381C120.2 37.5095 119.726 39.0492 118.778 40.1595C118.448 40.5519 118.173 40.8359 117.954 41.0113C117.499 41.3737 116.906 41.6877 116.176 41.9554C115.59 42.1747 114.828 42.2832 113.893 42.2832C112.402 42.2832 111.28 42.0939 110.525 41.7131C109.976 41.4384 109.514 41.0875 109.14 40.6558C108.678 40.1318 108.348 39.5547 108.148 38.9245C107.905 38.1697 107.783 37.1748 107.783 35.9398C107.783 35.0972 107.898 34.2985 108.129 33.5437C108.404 32.6527 108.812 31.9001 109.355 31.2884C109.897 30.6767 110.677 30.1712 111.693 29.7718C112.411 29.4902 113.207 29.3517 114.089 29.3517C115.424 29.3517 116.444 29.511 117.148 29.8295C117.94 30.185 118.561 30.6721 119.008 31.2884C119.803 32.371 120.2 33.7861 120.2 35.5381ZM118.72 36.0437C118.72 35.1457 118.616 34.3609 118.411 33.6868C118.18 32.9066 117.813 32.2302 117.307 31.6577C116.845 31.1337 116.296 30.7367 115.661 30.4689C114.925 30.1642 114.189 30.0096 113.454 30.0096C112.501 30.0096 111.811 30.1619 111.386 30.4689C110.613 31.0183 110.082 31.6231 109.796 32.2833C109.408 33.1559 109.216 34.2224 109.216 35.4827C109.216 37.341 109.563 38.8045 110.255 39.871C110.673 40.5196 111.301 41.0367 112.136 41.4245C112.792 41.7292 113.505 41.8839 114.279 41.8839C115.151 41.8839 115.957 41.6415 116.693 41.1544C117.268 40.7805 117.76 40.1387 118.171 39.2269C118.538 38.3959 118.72 37.3364 118.72 36.0437Z" fill="black"/>
<path d="M126.522 42.0954C126.522 42.1462 126.504 42.1693 126.467 42.1693H121.928C121.873 42.1693 121.838 42.1601 121.825 42.1416C121.813 42.1231 121.806 42.1024 121.806 42.077V41.7861C121.806 41.7307 121.815 41.6984 121.834 41.6869C121.852 41.6776 121.873 41.673 121.898 41.673H123.17C123.258 41.673 123.302 41.583 123.302 41.4006L123.283 31.7285C123.283 30.5489 123.175 29.9603 122.956 29.9603H121.767C121.679 29.9603 121.635 29.9303 121.635 29.8656V29.5378C121.635 29.4894 121.665 29.464 121.73 29.464H126.268C126.324 29.464 126.354 29.4894 126.354 29.5378V29.8841C126.354 29.9349 126.319 29.958 126.25 29.958H124.932C124.819 29.958 124.763 30.0226 124.763 30.1542C124.752 35.8166 124.745 38.7414 124.745 38.9283C124.745 39.8517 124.747 40.378 124.754 40.5096C124.798 41.2829 124.922 41.6707 125.128 41.6707H126.446C126.497 41.6707 126.52 41.6961 126.52 41.7446V42.0954H126.522Z" fill="black"/>
<path d="M140.818 29.8318C140.818 29.9057 140.8 29.9449 140.763 29.9449H140.229C139.749 29.9449 139.481 29.9518 139.426 29.9634C139.394 30.0811 139.38 30.2196 139.38 30.3743C139.354 30.7736 139.336 31.3969 139.324 32.2464C139.318 33.449 139.334 35.0534 139.371 37.0547C139.433 40.6466 137.956 42.4425 134.936 42.4425C133.632 42.4425 132.575 42.3017 131.765 42.0224C130.954 41.7407 130.37 41.2491 130.015 40.545C129.722 39.9587 129.555 39.0769 129.518 37.8973C129.493 37.1309 129.482 35.2103 129.482 32.1356C129.482 30.6767 129.359 29.9472 129.117 29.9472H127.854C127.785 29.9472 127.75 29.9172 127.75 29.8526V29.5617C127.75 29.4879 127.785 29.4486 127.854 29.4486H132.448C132.522 29.4486 132.561 29.474 132.561 29.5225V29.8133C132.561 29.901 132.536 29.9449 132.487 29.9449H131.187C131.114 29.9449 131.07 29.998 131.056 30.1042C131.019 30.3604 131 32.4149 131 36.2699C131 37.611 131.037 38.5182 131.114 38.9915C131.257 39.8825 131.672 40.5588 132.358 41.0205C133.043 41.4822 133.976 41.713 135.156 41.713C136.328 41.713 137.268 41.3599 137.972 40.6558C138.507 40.1203 138.775 39.0584 138.775 37.4748C138.775 35.3788 138.757 33.8299 138.72 32.8258C138.646 30.9052 138.445 29.9449 138.122 29.9449H136.915C136.864 29.9449 136.834 29.9357 136.82 29.9172C136.808 29.8987 136.801 29.878 136.801 29.8526V29.5433C136.801 29.4809 136.838 29.4509 136.915 29.4509H140.733C140.795 29.4509 140.827 29.4809 140.827 29.5433V29.8318H140.818Z" fill="black"/>
<path d="M0.00208982 23.4122C-0.0256108 20.0489 1.12396 17.0572 2.93373 14.2849C3.41619 13.5462 3.96327 12.8491 4.47804 12.1335C4.53344 12.055 4.5773 11.9557 4.65117 11.9049C4.81737 11.7964 4.99974 11.7157 5.17517 11.621C5.2098 11.8126 5.27905 12.0065 5.27212 12.1981C5.23981 13.0384 5.1013 13.8855 5.15671 14.7189C5.27905 16.5425 6.10776 18.1237 7.16961 19.5549C8.86397 21.8356 10.646 24.054 12.3842 26.3C13.6031 27.8743 14.5888 29.5895 15.2374 31.4708C15.9553 33.5529 16.0315 35.6674 15.4452 37.8165C14.9696 39.564 14.1894 41.1498 13.213 42.6572C12.7213 43.4167 12.5043 43.4467 11.821 42.8696C8.76932 40.2934 5.93463 37.5141 3.67703 34.197C2.36356 32.2672 1.30633 30.215 0.653053 27.9528C0.223694 26.4662 -0.0256108 24.9658 0.00208982 23.4122Z" fill="#AE280B"/>
<path d="M38.3859 29.9983C38.3859 34.3866 36.4815 37.8838 33.3213 40.7992C31.3592 42.6113 29.0923 43.9294 26.6039 44.8343C23.6146 45.9238 20.5282 46.3163 17.3635 45.7276C17.1719 45.693 16.8602 45.5799 16.8464 45.4714C16.821 45.289 16.9433 45.0328 17.0841 44.8851C18.5015 43.4008 19.9627 41.958 21.3546 40.4507C23.2683 38.3777 25.235 36.3394 26.9917 34.1372C29.2401 31.3164 30.9437 28.1862 31.3407 24.4951C31.6062 22.0229 31.2507 19.6268 30.5212 17.2722C30.3619 16.7598 30.138 16.2681 29.9764 15.7556C29.9141 15.5571 29.9372 15.3286 29.921 15.1162C30.1334 15.2085 30.3943 15.2501 30.5512 15.4001C31.2553 16.0788 31.9316 16.7851 32.6126 17.4892C34.7179 19.6706 36.3614 22.1521 37.4441 24.9891C38.0535 26.5981 38.4436 28.2532 38.3859 29.9983Z" fill="#AE280B"/>
<path d="M18.2243 0.0923353C18.1759 0.30009 18.162 0.524003 18.072 0.710981C16.8809 3.17402 17.1556 5.59321 18.2844 7.98469C19.3439 10.2331 21.0359 12.0498 22.4371 14.065C23.5359 15.6439 24.607 17.239 25.2395 19.0788C26.3268 22.2436 25.9251 25.2837 24.3162 28.1438C23.4274 29.7273 22.3056 31.1793 21.2899 32.689C21.2575 32.7375 21.2252 32.7906 21.1814 32.8229C20.9413 32.9937 20.6943 33.1576 20.4519 33.3215C20.4173 33.0399 20.3296 32.7559 20.355 32.4789C20.5466 30.256 19.9649 28.2153 18.6929 26.431C17.4141 24.6397 15.946 22.9869 14.6117 21.2348C13.6006 19.9075 12.5619 18.5848 11.7355 17.1443C10.8029 15.5262 10.3874 13.7233 10.6067 11.8189C10.9114 9.1712 12.1002 6.89744 13.693 4.84068C14.9003 3.28483 16.2668 1.85132 17.5734 0.371649C17.7096 0.216988 17.9127 0.122344 18.0858 0C18.132 0.030009 18.1782 0.0623263 18.2243 0.0923353Z" fill="#AE280B"/>
</svg>
