<svg width="12" height="16" viewBox="0 0 12 16" fill="none" xmlns="http://www.w3.org/2000/svg">
<path d="M10.9091 6C10.9091 4.69803 10.3919 3.44938 9.47125 2.52875C8.55062 1.60812 7.30197 1.09091 6 1.09091C4.69803 1.09091 3.44938 1.60812 2.52875 2.52875C1.60812 3.44938 1.09091 4.69803 1.09091 6C1.09091 8.01382 2.70218 10.6385 6 13.7825C9.29782 10.6385 10.9091 8.01382 10.9091 6ZM6 15.2727C1.99964 11.6367 0 8.54509 0 6C0 4.4087 0.632141 2.88258 1.75736 1.75736C2.88258 0.632141 4.4087 0 6 0C7.5913 0 9.11742 0.632141 10.2426 1.75736C11.3679 2.88258 12 4.4087 12 6C12 8.54509 10.0004 11.6367 6 15.2727Z" fill="#FAFAFD"/>
<path d="M5.99998 7.63659C6.43397 7.63659 6.85018 7.46418 7.15706 7.15731C7.46394 6.85043 7.63634 6.43421 7.63634 6.00022C7.63634 5.56623 7.46394 5.15002 7.15706 4.84314C6.85018 4.53626 6.43397 4.36386 5.99998 4.36386C5.56599 4.36386 5.14977 4.53626 4.84289 4.84314C4.53602 5.15002 4.36361 5.56623 4.36361 6.00022C4.36361 6.43421 4.53602 6.85043 4.84289 7.15731C5.14977 7.46418 5.56599 7.63659 5.99998 7.63659ZM5.99998 8.72749C5.27666 8.72749 4.58297 8.44016 4.0715 7.9287C3.56004 7.41723 3.27271 6.72354 3.27271 6.00022C3.27271 5.2769 3.56004 4.58321 4.0715 4.07175C4.58297 3.56029 5.27666 3.27295 5.99998 3.27295C6.7233 3.27295 7.41699 3.56029 7.92845 4.07175C8.43991 4.58321 8.72725 5.2769 8.72725 6.00022C8.72725 6.72354 8.43991 7.41723 7.92845 7.9287C7.41699 8.44016 6.7233 8.72749 5.99998 8.72749Z" fill="#FAFAFD"/>
</svg>
