<svg width="13" height="11" viewBox="0 0 13 11" fill="none" xmlns="http://www.w3.org/2000/svg">
<path d="M0 3.3418V8.8C0 9.38348 0.228273 9.94306 0.634602 10.3556C1.04093 10.7682 1.59203 11 2.16667 11H10.8333C11.408 11 11.9591 10.7682 12.3654 10.3556C12.7717 9.94306 13 9.38348 13 8.8V2.2C13 1.61652 12.7717 1.05694 12.3654 0.644365C11.9591 0.231785 11.408 0 10.8333 0H2.16667C1.59203 0 1.04093 0.231785 0.634602 0.644365C0.228273 1.05694 0 1.61652 0 2.2V3.3418ZM2.16667 1.1H10.8333C11.1207 1.1 11.3962 1.21589 11.5994 1.42218C11.8025 1.62847 11.9167 1.90826 11.9167 2.2V3.014L6.5 5.9752L1.08333 3.014V2.2C1.08333 1.90826 1.19747 1.62847 1.40063 1.42218C1.6038 1.21589 1.87935 1.1 2.16667 1.1ZM1.08333 4.2636L6.24325 7.084C6.32216 7.12713 6.41038 7.14971 6.5 7.14971C6.58962 7.14971 6.67784 7.12713 6.75675 7.084L11.9167 4.2636V8.8C11.9167 9.09174 11.8025 9.37153 11.5994 9.57782C11.3962 9.78411 11.1207 9.9 10.8333 9.9H2.16667C1.87935 9.9 1.6038 9.78411 1.40063 9.57782C1.19747 9.37153 1.08333 9.09174 1.08333 8.8V4.2636Z" fill="white"/>
</svg>
