<svg width="15" height="14" viewBox="0 0 15 14" fill="none" xmlns="http://www.w3.org/2000/svg">
<path d="M11.5987 14C11.4527 13.9996 11.3072 13.9843 11.1646 13.9544C8.44984 13.4184 5.94882 12.1616 3.94939 10.3287C1.99263 8.49182 0.635511 6.15304 0.0422341 3.59536C-0.0277208 3.2766 -0.0105511 2.94602 0.0920914 2.63542C0.194734 2.32482 0.379395 2.04466 0.628308 1.8219L2.36482 0.226607C2.45352 0.146548 2.5589 0.0852395 2.6741 0.0466844C2.7893 0.0081292 2.91172 -0.00680641 3.03338 0.00285232C3.15952 0.0154128 3.28125 0.0541972 3.39 0.116478C3.49876 0.178759 3.59189 0.263023 3.66287 0.363346L5.83351 3.42547C5.91491 3.54429 5.9542 3.68491 5.94561 3.82663C5.93701 3.96836 5.88098 4.10371 5.78575 4.21276L4.69609 5.45584C5.13007 6.3726 5.74466 7.20116 6.50641 7.89643C7.26322 8.61692 8.15776 9.19222 9.14157 9.59117L10.4917 8.5677C10.6051 8.48216 10.7431 8.43159 10.8873 8.4227C11.0316 8.41382 11.1752 8.44705 11.2992 8.51797L14.5769 10.5401C14.6893 10.6042 14.7852 10.6917 14.8571 10.7962C14.9291 10.9007 14.9754 11.0193 14.9926 11.1433C15.0097 11.2672 14.9972 11.3933 14.956 11.512C14.9149 11.6307 14.8461 11.739 14.7548 11.8287L13.0617 13.4282C12.8694 13.6108 12.6412 13.7554 12.3901 13.8535C12.139 13.9516 11.87 14.0014 11.5987 14ZM2.96392 0.823287L1.2274 2.41858C1.08738 2.54311 0.983723 2.70029 0.926634 2.87466C0.869546 3.04902 0.86099 3.23457 0.901809 3.41304C1.45346 5.81308 2.72155 8.00926 4.55283 9.73619C6.43443 11.4606 8.78802 12.6427 11.3426 13.1464C11.536 13.185 11.7363 13.1772 11.9258 13.1236C12.1152 13.0701 12.2877 12.9726 12.4279 12.8398L14.121 11.2403L10.9562 9.28868L9.50624 10.3909C9.45073 10.4328 9.38531 10.4612 9.3157 10.4734C9.24609 10.4857 9.17438 10.4816 9.10684 10.4613C7.90287 10.0379 6.8118 9.36584 5.91165 8.49311C4.9806 7.66323 4.25789 6.64341 3.79745 5.50971C3.77797 5.44108 3.77732 5.36882 3.79557 5.29988C3.81381 5.23093 3.85034 5.16764 3.90164 5.11607L5.07378 3.77768L2.96392 0.823287Z" fill="#FAFAFD"/>
</svg>
