<svg width="21" height="22" viewBox="0 0 21 22" fill="none" xmlns="http://www.w3.org/2000/svg">
<path d="M8.54178 1.34697C9.96505 1.34567 11.3567 1.76653 12.5408 2.55632C13.7248 3.3461 14.648 4.46932 15.1936 5.78389C15.7392 7.09845 15.8826 8.54529 15.6057 9.94138C15.3288 11.3375 14.6441 12.6201 13.6382 13.6269C12.6322 14.6338 11.3502 15.3197 9.9544 15.5978C8.55857 15.876 7.1116 15.7339 5.79654 15.1895C4.48148 14.6452 3.35741 13.723 2.56655 12.5397C1.77568 11.3564 1.35355 9.96505 1.35355 8.54177C1.36217 6.63739 2.12207 4.81336 3.46807 3.46613C4.81407 2.1189 6.6374 1.35734 8.54178 1.34697ZM8.54178 0C6.85237 0 5.20091 0.500966 3.79622 1.43955C2.39153 2.37813 1.29671 3.71217 0.650208 5.27298C0.00370114 6.83378 -0.165455 8.55125 0.164132 10.2082C0.493718 11.8651 1.30724 13.3871 2.50183 14.5817C3.69642 15.7763 5.21842 16.5898 6.87536 16.9194C8.5323 17.249 10.2498 17.0799 11.8106 16.4333C13.3714 15.7868 14.7054 14.692 15.644 13.2873C16.5826 11.8826 17.0836 10.2312 17.0836 8.54177C17.0836 6.27635 16.1836 4.10372 14.5817 2.50183C12.9798 0.899934 10.8072 0 8.54178 0Z" fill="white"/>
<path d="M20.8091 19.9023L15.9666 15.0269L15.0336 15.9534L19.8761 20.8288C19.9369 20.89 20.0092 20.9387 20.0889 20.972C20.1685 21.0053 20.254 21.0226 20.3403 21.0229C20.4266 21.0233 20.5122 21.0066 20.592 20.9738C20.6719 20.941 20.7446 20.8929 20.8058 20.832C20.8671 20.7712 20.9158 20.6989 20.9491 20.6193C20.9824 20.5396 20.9997 20.4542 21 20.3678C21.0003 20.2815 20.9836 20.196 20.9509 20.1161C20.9181 20.0362 20.87 19.9636 20.8091 19.9023Z" fill="white"/>
</svg>
